<svg xmlns="http://www.w3.org/2000/svg" width="2420.92" height="1103.812" viewBox="0 0 2420.92 1103.812">
  <path id="Pfad_1" data-name="Pfad 1" d="M-42.787,414.46S82.268,267,217.973,278.572,363.594,453.758,500.033,460.736s87.409-158.475,263.7-154.252S1040.1,491.77,1205.184,477.63s113.853-269.023,218.891-227.705,71.984,367.266,201.262,392.975,206.036-408.584,315.849-290.14,93.4,342.4,123.4,763.914S580.648,1270.925,7.162,1204.817c-8.029-.926-15.895-1.836-23.844-2.762-542.456-63.167-290.6-58.978-212.676-349.814C-150.322,557.276-42.787,414.46-42.787,414.46Z" transform="translate(355.893 -245.4)" fill="#0fb5b5"/>
</svg>
